<?xml version="1.0" encoding="UTF-8"?>
<svg xmlns="http://www.w3.org/2000/svg" xmlns:xlink="http://www.w3.org/1999/xlink" width="125px" height="43px" viewBox="0 0 123 43" version="1.1">
<g id="surface1">
<path style=" stroke:none;fill-rule:nonzero;fill:rgb(13.72549%,12.156863%,12.54902%);fill-opacity:1;" d="M 39.046875 42.832031 C 37.832031 42.5 37.109375 42.023438 36.613281 41.210938 C 35.683594 39.671875 35.933594 37.863281 37.273438 36.410156 L 38.078125 35.535156 L 37.953125 36.597656 C 37.519531 40.089844 41.007812 40.546875 44.347656 37.46875 C 46.164062 35.785156 47.402344 34.015625 49.773438 29.566406 L 50.640625 27.964844 L 49.589844 28.609375 C 48.289062 29.441406 46.410156 29.652344 45.566406 29.089844 C 44.84375 28.632812 44.453125 27.570312 44.453125 26.179688 L 44.453125 25.015625 L 43.007812 26.15625 C 38.449219 29.734375 34.40625 30.441406 32.734375 27.945312 C 32.300781 27.300781 32.261719 27.03125 32.324219 25.660156 C 32.445312 23.476562 33.292969 21.894531 35.355469 19.835938 C 39.957031 15.261719 46.824219 15.074219 44.96875 19.585938 C 43.9375 22.082031 41.523438 23.808594 37.6875 24.804688 C 36.40625 25.140625 36.40625 25.140625 36.714844 25.617188 C 36.984375 25.992188 37.253906 26.074219 38.058594 26.074219 C 40.367188 26.074219 42.882812 24.496094 46.824219 20.542969 C 50.1875 17.152344 51.320312 16.449219 53.464844 16.425781 C 54.496094 16.40625 54.847656 16.488281 55.40625 16.90625 L 56.085938 17.402344 L 56.375 16.96875 C 56.640625 16.550781 56.847656 16.507812 58.726562 16.507812 L 60.789062 16.507812 L 59.386719 19.171875 C 54.847656 27.800781 51.320312 34.246094 50.332031 35.742188 C 46.84375 41.046875 42.492188 43.769531 39.046875 42.832031 Z M 51.15625 25.242188 C 52.226562 24.496094 52.910156 23.621094 54.0625 21.417969 L 54.992188 19.671875 L 54.496094 19.089844 C 54.0625 18.589844 53.917969 18.546875 53.21875 18.671875 C 52.105469 18.878906 50.308594 20.792969 49.320312 22.746094 C 48.515625 24.390625 48.390625 25.242188 48.90625 25.761719 C 49.339844 26.199219 50 26.03125 51.15625 25.242188 Z M 38.78125 21.894531 C 40.183594 21.230469 41.152344 20.230469 41.152344 19.460938 C 41.152344 18.402344 40.242188 18.296875 38.839844 19.191406 C 37.933594 19.773438 37.046875 20.980469 36.714844 22.101562 C 36.574219 22.558594 36.613281 22.601562 37.191406 22.476562 C 37.542969 22.414062 38.265625 22.144531 38.78125 21.894531 Z M 7.21875 29.628906 C 6.230469 29.195312 5.984375 28.632812 5.984375 26.71875 C 6.003906 25.035156 6.394531 23.476562 7.40625 21.0625 C 7.53125 20.75 7.34375 20.730469 5.632812 20.835938 C 3.445312 20.9375 1.753906 20.667969 0.722656 20.003906 L 0 19.546875 L 0.824219 19.398438 C 4.292969 18.777344 5.300781 18.527344 6.476562 17.945312 C 8.046875 17.152344 10.230469 15.074219 11.347656 13.285156 C 11.757812 12.601562 12.582031 11.3125 13.140625 10.4375 L 14.191406 8.816406 L 16.421875 8.816406 C 17.65625 8.816406 18.667969 8.859375 18.667969 8.921875 C 18.667969 8.984375 18.113281 10 17.410156 11.164062 C 15.761719 13.972656 12.046875 21.5 11.574219 22.996094 C 11.386719 23.640625 11.242188 24.433594 11.285156 24.765625 C 11.324219 25.242188 11.449219 25.367188 11.984375 25.410156 C 12.460938 25.449219 12.914062 25.261719 13.839844 24.554688 C 16.523438 22.539062 16.605469 22.4375 20.320312 15.46875 L 23.804688 8.921875 L 25.96875 8.859375 C 27.414062 8.816406 28.15625 8.878906 28.15625 9.023438 C 28.15625 9.148438 26.570312 12.269531 24.648438 15.988281 C 20.773438 23.390625 20.441406 24.328125 21.328125 25.222656 C 22.152344 26.054688 23.617188 25.429688 25.867188 23.265625 C 30.09375 19.210938 32.734375 13.246094 32.777344 7.570312 C 32.796875 5.488281 32.734375 5.03125 32.324219 4.097656 C 31.703125 2.746094 31.125 2.203125 29.785156 1.746094 L 28.734375 1.371094 L 29.621094 0.851562 C 32.488281 -0.832031 35.292969 0.0429688 36.820312 3.097656 C 37.5 4.46875 37.542969 4.65625 37.605469 7.050781 C 37.664062 9.167969 37.605469 9.835938 37.148438 11.582031 C 36.117188 15.679688 33.519531 20.023438 30.011719 23.578125 C 27.765625 25.847656 25.597656 27.425781 23.144531 28.550781 C 18.75 30.605469 16.152344 30.085938 15.65625 27.074219 L 15.53125 26.324219 L 14.5625 27.050781 C 13.039062 28.238281 10.046875 29.609375 8.746094 29.734375 C 8.128906 29.777344 7.445312 29.734375 7.21875 29.628906 Z M 113.757812 29.671875 C 111.675781 29.316406 110.457031 28.488281 109.796875 26.949219 L 109.40625 26.054688 L 108.539062 26.71875 C 105.632812 28.902344 104.085938 29.546875 103.074219 28.964844 C 102.578125 28.695312 102.515625 28.527344 102.515625 27.613281 C 102.539062 26.71875 102.785156 26.054688 104.269531 23.101562 C 106.496094 18.671875 106.351562 18.382812 103.03125 20.6875 C 101.960938 21.417969 101.792969 21.667969 99.980469 25.117188 L 98.039062 28.777344 L 93.914062 28.777344 L 94.761719 27.21875 C 95.234375 26.367188 95.566406 25.660156 95.484375 25.660156 C 95.421875 25.660156 94.617188 26.21875 93.730469 26.90625 C 91.957031 28.238281 90.636719 29.070312 89.871094 29.296875 C 88.863281 29.589844 87.769531 28.671875 87.769531 27.53125 C 87.769531 26.988281 87.726562 26.988281 86.59375 27.863281 C 86.035156 28.300781 85.230469 28.796875 84.777344 29.007812 C 83.746094 29.484375 82.035156 29.527344 81.394531 29.070312 C 80.464844 28.402344 80.09375 26.636719 80.527344 25.078125 C 80.777344 24.246094 80.734375 24.285156 78.796875 25.96875 C 75.949219 28.464844 74.011719 29.484375 73 29.007812 C 71.761719 28.445312 71.96875 27.34375 74.070312 23.144531 C 74.917969 21.417969 75.597656 19.855469 75.558594 19.671875 C 75.453125 19.148438 74.835938 19.335938 73.308594 20.355469 C 71.925781 21.269531 71.925781 21.269531 70.027344 24.867188 C 68.976562 26.84375 68.050781 28.550781 67.964844 28.632812 C 67.90625 28.714844 66.894531 28.757812 65.738281 28.734375 L 63.65625 28.671875 L 65.820312 24.535156 C 67.90625 20.585938 68.335938 19.460938 67.863281 19.273438 C 67.65625 19.210938 65.757812 20.316406 64.6875 21.105469 C 64.4375 21.292969 63.367188 23.082031 62.316406 25.054688 L 60.394531 28.671875 L 58.3125 28.734375 L 56.25 28.796875 L 59.242188 23.121094 C 60.890625 20.003906 62.375 17.238281 62.519531 16.988281 C 62.789062 16.550781 62.976562 16.507812 64.769531 16.507812 C 65.84375 16.507812 66.730469 16.550781 66.730469 16.613281 C 66.730469 16.675781 66.503906 17.175781 66.234375 17.738281 L 65.71875 18.734375 L 67.84375 17.632812 C 70.316406 16.363281 71.617188 16.074219 72.421875 16.613281 C 72.894531 16.925781 72.9375 17.070312 72.875 17.984375 C 72.855469 18.546875 72.855469 19.003906 72.894531 19.003906 C 72.9375 19.003906 73.410156 18.734375 73.925781 18.382812 C 75.207031 17.570312 77.394531 16.570312 78.34375 16.40625 C 79.433594 16.199219 80.054688 16.40625 80.34375 17.113281 C 80.671875 17.921875 80.300781 19.191406 78.898438 22.226562 C 78.320312 23.453125 77.886719 24.496094 77.929688 24.535156 C 78.054688 24.660156 81.3125 22.019531 83.128906 20.316406 C 85.148438 18.402344 86.550781 17.402344 87.933594 16.863281 C 88.921875 16.46875 90.757812 16.40625 91.605469 16.71875 C 91.976562 16.863281 92.222656 16.863281 92.410156 16.71875 C 92.574219 16.59375 93.480469 16.507812 94.636719 16.550781 L 96.597656 16.613281 L 95.113281 19.335938 C 93.566406 22.1875 92.347656 24.953125 92.574219 25.160156 C 92.761719 25.347656 95.316406 23.433594 96.84375 21.976562 C 97.835938 21.042969 98.472656 20.167969 99.320312 18.609375 L 100.453125 16.507812 L 102.476562 16.507812 C 103.570312 16.507812 104.476562 16.550781 104.476562 16.59375 C 104.476562 16.632812 104.25 17.09375 103.960938 17.570312 C 103.671875 18.070312 103.445312 18.546875 103.445312 18.628906 C 103.445312 18.714844 104.085938 18.402344 104.867188 17.964844 C 106.414062 17.070312 108.5 16.300781 109.324219 16.300781 C 109.613281 16.300781 110.046875 16.507812 110.273438 16.738281 C 111.015625 17.488281 110.707031 18.816406 108.929688 22.476562 C 108.085938 24.222656 107.46875 25.660156 107.550781 25.660156 C 107.816406 25.660156 109.035156 24.617188 110.355469 23.246094 C 111.714844 21.851562 112.914062 21.355469 114.316406 21.625 L 115.035156 21.769531 L 114.210938 22.621094 C 113.179688 23.703125 112.914062 24.222656 112.890625 25.222656 C 112.871094 27.320312 115.015625 28.695312 116.523438 27.507812 C 117.222656 26.949219 117.222656 26.03125 116.542969 23.972656 C 115.324219 20.378906 116.191406 17.488281 118.851562 16.363281 C 120.855469 15.53125 123.371094 16.800781 122.957031 18.445312 C 122.792969 19.109375 122.175781 19.546875 121.101562 19.753906 C 120.339844 19.878906 120.316406 19.878906 120.484375 19.398438 C 120.585938 19.128906 120.648438 18.566406 120.667969 18.171875 C 120.667969 17.527344 120.605469 17.445312 120.089844 17.382812 C 119.410156 17.300781 118.707031 17.839844 118.707031 18.445312 C 118.707031 18.652344 119.121094 19.609375 119.636719 20.542969 C 121.84375 24.617188 121.492188 27.363281 118.605469 28.839844 C 117.429688 29.441406 114.894531 29.878906 113.757812 29.671875 Z M 86.800781 25.429688 C 87.335938 25.078125 88.035156 24.453125 88.367188 24.058594 C 89.273438 22.957031 90.882812 19.816406 90.757812 19.398438 C 90.554688 18.753906 90.078125 18.527344 89.273438 18.691406 C 87.085938 19.109375 83.582031 24.992188 85.046875 25.847656 C 85.582031 26.179688 85.765625 26.136719 86.800781 25.429688 Z M 86.800781 25.429688 "/>
</g>
</svg>
